<?xml version="1.0" encoding="UTF-8" standalone="no"?>
<svg width="42px" height="91px" viewBox="0 0 42 91" version="1.1" xmlns="http://www.w3.org/2000/svg" xmlns:xlink="http://www.w3.org/1999/xlink" xmlns:sketch="http://www.bohemiancoding.com/sketch/ns">
    <!-- Generator: Sketch 3.0.2 (7799) - http://www.bohemiancoding.com/sketch -->
    <title>Shape</title>
    <description>Created with Sketch.</description>
    <defs></defs>
    <g id="Page-1" stroke="none" stroke-width="1" fill="none" fill-rule="evenodd" sketch:type="MSPage">
        <path d="M24.823,20.983 C25.571,20.038 26.331,19.102 27.106,18.176 C27.276,17.97 27.351,18.015 27.185,18.232 C26.383,19.286 25.611,20.361 24.859,21.452 L24.262,22.362 C23.92,22.871 23.607,23.399 23.276,23.915 L22.618,24.951 C22.169,25.669 21.731,26.394 21.292,27.119 L20.749,28.008 C20.177,28.973 19.621,29.948 19.082,30.93 L18.562,31.895 C17.276,34.282 16.054,36.702 14.897,39.154 C11.453,46.453 8.671,54.079 6.71,61.911 C6.163,64.097 5.674,66.295 5.255,68.509 C4.69,71.483 4.244,74.48 3.924,77.488 C3.596,80.583 3.63,83.827 4.594,86.813 C4.901,87.767 5.319,88.661 5.803,89.518 C6.031,89.926 6.397,89.785 6.251,89.361 C5.403,86.879 5.139,84.079 5.641,81.707 C6.072,79.671 7.076,77.819 8.183,76.075 C8.424,75.755 8.715,75.456 8.975,75.118 C9.306,74.729 9.629,74.315 10.016,73.944 C10.388,73.559 10.766,73.173 11.145,72.783 C11.962,72.068 12.743,71.308 13.569,70.702 C13.981,70.401 14.34,70.043 14.735,69.795 C15.121,69.533 15.479,69.267 15.813,69.021 C16.473,68.522 17.097,68.173 17.49,67.88 C17.619,67.786 17.73,67.708 17.822,67.643 C18.015,67.503 18.003,67.466 17.787,67.535 C17.676,67.571 17.54,67.612 17.381,67.664 C16.92,67.838 16.242,68.016 15.483,68.403 C15.1,68.588 14.683,68.792 14.249,69.023 C13.8,69.234 13.387,69.538 12.938,69.829 C12.792,69.932 12.64,70.027 12.488,70.13 C12.419,70.175 12.384,70.132 12.435,70.067 C13.514,68.658 14.606,67.261 15.685,65.852 C16.766,64.43 17.824,62.991 18.848,61.526 C22.308,56.989 25.377,49.405 28.82,45.322 C28.905,45.22 28.921,45.132 28.729,45.256 C27.926,45.775 25.898,47.063 24.156,48.341 C22.649,49.455 21.405,50.584 20.936,50.967 C20.831,51.055 20.827,50.98 20.887,50.896 C21.559,49.968 23.776,47.427 28.216,43.336 C29.256,42.376 30.174,41.187 30.721,39.859 C30.786,39.702 30.742,39.643 30.651,39.767 C29.6,41.16 28.03,42.095 26.494,42.869 C26.388,42.923 26.354,42.891 26.445,42.819 C29.917,40.075 32.359,35.561 34.138,31.078 C36.11,26.106 37.566,20.868 38.848,15.682 C39.372,13.566 39.857,11.444 40.288,9.307 C40.611,7.711 40.906,6.111 41.16,4.501 C41.197,4.282 41.224,4.022 41.244,3.741 C41.255,3.541 41.087,3.383 40.846,3.542 C40.462,3.797 39.899,4.068 39.534,4.233 C39.32,4.329 39.388,4.25 39.495,4.169 C40.137,3.683 40.765,2.947 40.989,2.214 C41.225,1.427 40.682,0.477 39.968,0.183 C38.611,-0.376 36.93,0.456 35.829,1.229 C35.49,1.466 35.163,1.734 34.862,2.017 C34.346,2.501 33.903,3.045 33.515,3.635 C33.492,3.671 33.479,3.711 33.483,3.626 C33.495,3.394 33.55,2.896 33.817,2.421 C33.842,2.374 33.817,2.328 33.774,2.353 C31.915,3.417 30.075,4.545 28.309,5.797 C26.248,7.257 24.228,8.788 22.368,10.499 C21.842,10.985 21.327,11.482 20.827,11.998 C20.476,12.362 20.134,12.734 19.8,13.113 C19.631,13.307 19.462,13.503 19.296,13.699 C19.158,13.864 18.862,14.108 18.794,14.311 C19.106,13.386 19.232,12.383 19.016,11.426 C18.925,11.027 18.836,11.256 18.827,11.433 C18.701,13.652 17.405,15.717 16.392,17.631 C16.1,18.183 15.812,18.737 15.551,19.305 C14.866,20.792 14.256,22.329 13.889,23.93 C13.853,24.085 13.812,24.204 13.774,24.181 C13.753,24.167 13.733,24.109 13.716,23.985 C13.67,23.635 13.692,23.272 13.703,22.92 C13.729,22.08 13.811,21.261 13.991,20.439 C14.079,20.033 14.195,19.635 14.343,19.247 C14.382,19.145 14.321,19.122 14.25,19.211 C13.196,20.519 12.185,21.858 11.253,23.25 C7.289,29.179 4.403,35.85 2.671,42.763 C2.163,44.785 1.772,46.836 1.574,48.914 C1.455,50.161 1.415,51.957 2.497,52.838 C2.538,52.871 2.57,52.912 2.48,52.871 C2.199,52.735 1.581,52.401 1.269,51.925 C1.252,51.901 1.213,51.916 1.21,51.949 C0.682,56.776 0.606,61.641 1.029,66.538 C1.239,68.97 1.54,71.392 1.908,73.808 C2.072,74.872 2.301,75.93 2.519,76.985 C2.681,77.765 2.834,77.736 2.894,76.935 C2.978,75.811 3.18,74.682 3.336,73.582 C3.628,71.53 3.94,69.478 4.295,67.436 C5.453,60.767 7.178,54.165 9.608,47.846 C11.926,41.81 14.779,35.928 18.186,30.427 L18.771,29.538 C19.324,28.673 19.879,27.81 20.463,26.964 L21.062,26.124 C21.544,25.439 22.02,24.754 22.515,24.08 L23.197,23.155 C23.533,22.709 23.848,22.245 24.192,21.805 L24.823,20.983 L24.823,20.983 Z" id="Shape" fill="#FFFFFF" sketch:type="MSShapeGroup"></path>
    </g>
</svg>